<?xml version="1.0" encoding="utf-8" ?><svg xmlns="http://www.w3.org/2000/svg" xmlns:xlink="http://www.w3.org/1999/xlink" width="2048" height="2048" viewBox="0 0 2048 2048"><path fill="#F60403" d="M0 0L978.311 0L992.125 0L1060.71 0L1072.92 0L2048 0L2048 977.281L2048 1075.74L2048 2048L1068.84 2048L979.119 2048L0 2048L0 1077.63L0 973.193L0 0Z"/><path fill="#FCFCFA" d="M0 0L978.311 0C963.073 2.04702 946.025 2.13864 930.625 3.80354C907.087 6.34822 882.44 8.94099 859.145 12.8617C694.749 39.4012 539.474 106.209 407.166 207.328C377.399 229.913 358.976 246.957 331.301 270.607C305.044 296.849 280.189 320.074 255.317 348.255C108.144 515.004 17.0732 728.367 2.54468 950.606C2.05429 958.099 1.28211 965.745 0 973.193L0 0Z"/><path fill="#FCFCFA" d="M0 1077.63L0.273738 1078.95C2.28365 1088.92 2.99183 1101.73 3.7362 1112C7.32997 1161.61 15.091 1210.63 26.6555 1259.02C86.4997 1510.7 239.156 1730.51 454.09 1874.48C577.761 1957.4 717.985 2012.43 865.041 2035.75C884.503 2038.91 904.07 2041.38 923.707 2043.15C939.891 2044.47 963.658 2045.55 979.119 2048L0 2048L0 1077.63Z"/><path fill="#FCFCFA" d="M1072.92 0L2048 0L2048 977.281C2046.55 971.339 2045.5 950.769 2044.63 943.394C2040.93 912.14 2038.88 865.306 2030.42 835.367C2026.84 804.645 2008.94 740.579 1999.44 711.68C1947.62 548.993 1855.36 402.119 1731.3 284.813C1730.04 282.917 1720.4 274.218 1718.28 272.209C1693.85 249.041 1668.7 228.936 1642.18 208.39C1633.01 200.402 1613.94 187.391 1603.71 180.236C1528 127.474 1445.32 85.4897 1358.06 55.4878C1341.88 49.9335 1322.42 43.135 1305.96 39.1187C1300.89 37.2132 1285.99 33.6167 1280.04 32.0365C1243.16 22.493 1205.77 15.0002 1168.06 9.59243C1136.8 5.4449 1102.05 4.16321 1072.92 0Z"/><path fill="#FCFCFA" d="M2048 1075.74L2048 2048L1068.84 2048C1078.71 2046.29 1100.48 2045.18 1110.98 2044.43C1130.42 2043.01 1149.81 2041.02 1169.14 2038.47C1240.06 2028.74 1309.58 2008.97 1377.06 1985.63C1394.76 1978.39 1411.25 1972.06 1428.98 1964.35C1490.78 1940.13 1576 1889.03 1628.27 1850.44C1824.54 1707.13 1963.6 1498.84 2020.71 1262.63C2029.01 1226.98 2035.66 1188.7 2040.28 1152.45C2043.49 1127.28 2044.28 1100.42 2048 1075.74Z"/><path fill="#EC0303" d="M978.311 0L992.125 0C991.415 1.72875 991.019 3.28031 988.416 3.64847C971.08 6.10046 954.508 8.55389 936.988 9.57264C932.798 9.81624 926.028 11.216 921.768 11.7272C921.768 11.7272 918.417 14.7188 918.417 14.7188C913.384 15.2481 906.558 14.7077 901.694 15.1066C886.787 16.3292 871.271 17.2192 856.515 19.1901C844.77 21.1595 832.695 22.5773 821.06 25.1238C815.811 26.2727 810.149 28.931 804.484 30.1654C788.8 33.5832 772.775 36.6944 757.631 42.0746C755.496 42.8332 752.598 46.8758 749.995 47.2188C739.571 47.8756 732.188 48.606 722.101 50.5504C708.505 53.1713 666.74 79.6414 656.412 75.2328L656.431 77.6842C650.196 80.8738 638.907 81.8151 631.645 83.6722C623.54 85.7453 622.053 90.8058 615.535 95.1542C614.078 96.1262 602.9 97.2391 601.13 98.2686C595.511 101.537 595.147 107.58 587.8 108.023C571.018 109.872 554.091 122.546 539.133 130.134C535.471 131.992 530.869 138.103 525.937 140.741C512.139 148.121 493.547 148.771 487.387 164.696C486.611 166.702 474.293 167.491 472.693 168.948C467.715 174.097 466.637 177.495 459.506 179.893C455.206 181.339 442.93 186.719 441.554 190.703C437.094 203.609 430.2 197.776 420.203 206.181L419.702 207.897C422.503 208.664 422.244 207.986 423.348 209.589C420.629 210.055 411.838 210.632 410.883 211.419C401.028 219.548 391.555 228.519 381.659 236.649C375.365 241.82 371.215 241.475 366.704 247.616C364.271 250.928 362.33 256.078 359.5 257.041L356.979 256.169C345.583 262.873 344.824 270.31 331.301 270.607C358.976 246.957 377.399 229.913 407.166 207.328C539.474 106.209 694.749 39.4012 859.145 12.8617C882.44 8.94099 907.087 6.34822 930.625 3.80354C946.025 2.13864 963.073 2.04702 978.311 0Z"/><path fill="#EC0303" d="M1731.3 284.813C1855.36 402.119 1947.62 548.993 1999.44 711.68C2008.94 740.579 2026.84 804.645 2030.42 835.367C2019.11 824.325 2007.94 753.334 2002.69 749.338L2000.15 750.845C1999.02 747.924 1999.72 743.604 1999.93 740.42C2000.45 732.281 1987.62 696.675 1983.63 687.553C1980.62 680.648 1975.34 673.3 1974.36 665.865C1974.06 663.569 1973.9 660.347 1972.99 658.227C1971.83 655.516 1970.84 655.479 1968.27 654.581C1966.29 651.178 1967.44 648.096 1966.87 644.024C1963.98 632.534 1955.16 610.032 1949.49 600.116C1943.1 588.946 1940.24 597.003 1937.95 577.385C1937.25 571.409 1921.89 554.149 1922.53 543.743C1922.68 541.215 1906.59 527.369 1907.97 521.952C1908.19 520.17 1906.79 516.877 1905.88 515.439L1904.76 515.274L1903.96 519.072C1900.43 514.011 1898.92 498.721 1891.29 491.66C1885.69 486.471 1890.46 487.077 1882.43 486.281L1881.97 485.237L1884.99 484.877L1885.51 484.03L1883.52 479.37C1877.67 474.967 1869.12 460.734 1864.46 454.034C1863.49 452.703 1858.81 443.203 1857.86 442.698C1843.92 435.246 1845.24 422.564 1836.44 411.11C1824.2 395.157 1810.61 380.859 1797.05 366.061C1789.4 357.715 1783.47 347.658 1776.5 338.8C1762.96 326.018 1749.4 313.22 1737.55 298.81C1732.71 292.925 1732.6 292.207 1731.3 284.813Z"/><path fill="#EC0303" d="M1305.96 39.1187C1322.42 43.135 1341.88 49.9335 1358.06 55.4878C1445.32 85.4897 1528 127.474 1603.71 180.236C1613.94 187.391 1633.01 200.402 1642.18 208.39C1632.78 208.646 1632.1 208.299 1623.81 203.22L1622.59 202.466C1621 204.912 1620.61 205.639 1618.12 207.153L1619.35 206.77L1617.8 206.908C1617.34 202.134 1618.18 203.228 1615.42 200.674C1612.83 200.187 1611.51 200.277 1609.61 198.537C1608.94 189.326 1607.72 193.433 1603.2 186.937C1600.35 180.742 1591.15 182.045 1586.88 178.313C1582.67 174.626 1580.2 168.232 1573.06 168.752C1561.56 169.589 1562.82 160.44 1557.76 157.734C1549.83 153.958 1540.76 144.904 1531.66 145.603C1522.34 146.319 1527.17 137.778 1518.16 136.865C1512.02 136.243 1506.5 128.154 1500.45 125.125C1488.63 119.206 1476.65 113.153 1464.88 107.141C1462.87 107.519 1461.07 107.789 1459.05 108.072C1454.72 106.418 1453.9 104.604 1450.55 101.413C1437.66 89.7984 1416.76 85.3095 1400.91 78.7051C1390.36 74.3107 1383.67 72.9283 1373.31 68.0607C1359.41 61.5307 1344.25 56.3381 1330.33 49.7509C1323.95 46.7361 1309.68 44.6748 1305.96 39.1187Z"/><path fill="#EC0303" d="M1377.06 1985.63C1380.95 1977.17 1378.42 1979.16 1386.05 1973.69C1400.59 1963.29 1410.9 1960.67 1428.98 1964.35C1411.25 1972.06 1394.76 1978.39 1377.06 1985.63Z"/><path fill="#FCFCFA" d="M1014.26 66.4986C1019.35 63.5666 1025.4 65.1234 1031.07 64.7231C1035.44 64.4142 1047.62 59.7843 1050.99 59.833C1075.91 60.1935 1107.64 66.813 1131.59 71.5067C1153.11 71.1765 1178.37 78.2122 1199.95 81.0537C1243.58 86.7959 1286.95 100.445 1328.45 114.693C1334.8 116.87 1348.95 119.328 1353.68 121.405C1363.33 125.64 1373.5 130.518 1383.53 134.782C1456.05 165.003 1525.05 203.071 1589.3 248.306C1598.5 254.758 1608.06 267.254 1616.03 272.402C1642.82 289.73 1663.67 308.029 1685.15 331.6C1695.36 342.808 1709.75 352.253 1719.31 364.441C1852.35 504.315 1935.4 670.921 1968.31 863.287C2006.75 1087.93 1962.05 1340.56 1834.65 1533.32C1823.68 1550.11 1815.32 1566.67 1807.89 1585.29C1803.47 1587.01 1796.96 1589.71 1792.28 1589.86C1783.09 1600.78 1773.48 1613.7 1764.12 1625.1C1764.34 1627.61 1759.79 1632.17 1757.8 1634.54C1693.51 1710.41 1618.15 1776.14 1534.26 1829.52C1512.12 1843.61 1491.07 1854.61 1468.99 1867.61C1467.16 1874.92 1353.35 1921.99 1338.44 1927.5C1333.59 1929.29 1310.8 1935.86 1303.33 1938.35C1277.38 1947 1249.1 1951.96 1222.85 1960.03C1211.17 1963.28 1193.87 1964 1181.64 1966.18C1012.5 1997.16 838.041 1979.67 678.411 1915.74C660.2 1908.54 643.57 1903.4 625.611 1894.14C603.757 1881.88 577.978 1872.01 556.782 1858.86C537.851 1847.11 515.34 1834.77 496.977 1822.59C352.36 1726.16 235.811 1593.21 159.148 1437.21C138.986 1395.2 122.217 1349.78 108.022 1305.54C105.188 1296.71 104.901 1286.52 102.428 1279.44C91.3532 1247.73 83.9899 1216.82 80.151 1183.43C78.9063 1172.76 75.3327 1161.55 74.2461 1150.92C69.8107 1107.54 67.8286 1064.41 67.4204 1020.82C67.4548 960.127 73.1629 899.573 84.4701 839.945C86.6641 827.798 88.4508 815.512 90.866 803.435C92.5894 795.522 96.5656 787.836 98.4851 780.044C106.688 746.745 115.333 713.29 129.548 681.984C138.077 663.199 144.898 637.697 154.459 619.898C173.045 585.301 190.048 549.435 211.263 516.463C216.714 507.952 222.998 499.926 228.041 491.592C242.547 467.621 259.9 446.573 277.292 424.761C285.321 415.747 292.781 403.262 301.249 394.838C318.45 377.724 334.263 360.212 350.337 342.131C358.634 332.798 374.174 321.137 383.874 312.375C555.981 154.66 780.818 66.9641 1014.26 66.4986Z"/><path fill="#F60403" d="M1470.17 1073.43C1472.16 1070.51 1472.28 1070.11 1473.5 1066.7L1473.81 1065.8C1476.87 1063.79 1475.73 1064.38 1480.14 1064.65C1499.27 1106.82 1527.26 1152.75 1545.85 1194.95C1558.08 1218.19 1569.97 1241.61 1581.54 1265.18C1583.72 1269.28 1594.32 1288.6 1594.65 1291.89C1599.6 1299.38 1606.14 1313.2 1610.35 1321.61L1635.47 1371.53L1706.04 1510.91C1717.7 1533.95 1729.84 1559.08 1742.05 1581.73C1747.05 1591.09 1760.02 1618.82 1764.12 1625.1C1764.34 1627.61 1759.79 1632.17 1757.8 1634.54C1693.51 1710.41 1618.15 1776.14 1534.26 1829.52C1512.12 1843.61 1491.07 1854.61 1468.99 1867.61C1464.94 1867.86 1425.4 1889.51 1417.37 1892.97C1361.89 1916.82 1307.96 1937.43 1248.89 1951.35C1176.37 1968.43 1101.12 1977.51 1026.56 1978.38C1017.03 1978.5 1006.87 1977.06 997.461 1977.9C1001.28 1970.15 1006.43 1961.49 1010.72 1953.87C1014.71 1946.58 1017.97 1940.86 1022.49 1933.91C1029.51 1920.6 1046.05 1890.01 1054.29 1877.71C1063.31 1859.14 1083.15 1826.58 1093.84 1807.7C1102.36 1790.68 1114.64 1770.29 1124.18 1753.59L1176.22 1662.14L1354.32 1347.92C1382.67 1297.28 1421.7 1237.08 1442.99 1184.11C1456.87 1148.57 1466.01 1111.36 1470.17 1073.43Z"/><path fill="#010301" d="M1742.05 1581.73C1747.05 1591.09 1760.02 1618.82 1764.12 1625.1C1764.34 1627.61 1759.79 1632.17 1757.8 1634.54C1693.51 1710.41 1618.15 1776.14 1534.26 1829.52C1512.12 1843.61 1491.07 1854.61 1468.99 1867.61C1464.94 1867.86 1425.4 1889.51 1417.37 1892.97C1361.89 1916.82 1307.96 1937.43 1248.89 1951.35C1176.37 1968.43 1101.12 1977.51 1026.56 1978.38C1017.03 1978.5 1006.87 1977.06 997.461 1977.9C1001.28 1970.15 1006.43 1961.49 1010.72 1953.87C1014.71 1946.58 1017.97 1940.86 1022.49 1933.91C1036.44 1938.06 1106.52 1931.93 1122.08 1930.12C1201.99 1920.9 1280.38 1901.37 1355.29 1872.03C1497.36 1816 1638.67 1714.03 1733.42 1594.11C1736.46 1591.15 1740.49 1585.75 1742.05 1581.73Z"/><path fill="#EC0303" d="M1594.65 1291.89C1599.6 1299.38 1606.14 1313.2 1610.35 1321.61L1635.47 1371.53L1706.04 1510.91C1717.7 1533.95 1729.84 1559.08 1742.05 1581.73C1740.49 1585.75 1736.46 1591.15 1733.42 1594.11C1733.34 1587.5 1735.51 1584.03 1733.32 1577.05C1730.57 1568.31 1726.62 1554.09 1717.34 1550.41L1714.42 1552.55L1712.93 1551.86C1709.65 1544.62 1710.71 1534.66 1707.94 1529.41C1701.51 1518.62 1695.99 1505.26 1689.66 1494.67C1684.95 1486.78 1679.32 1487.05 1679.19 1474.37C1679.12 1467.76 1671.14 1459.69 1669.17 1454.22C1666.29 1446.27 1653.45 1430.6 1653.94 1423.22C1652.07 1421.79 1651.58 1421.7 1649.4 1420.8C1646.61 1416.23 1645.74 1404.05 1642.57 1396.8C1637.03 1384.09 1613.31 1351.4 1611.99 1340.95C1610.34 1327.83 1594.06 1300.5 1594.65 1291.89Z"/><path fill="#EC0303" d="M1545.85 1194.95C1558.08 1218.19 1569.97 1241.61 1581.54 1265.18C1571.46 1260.97 1568.57 1254.64 1562.98 1245.75L1563.28 1246.89C1559.67 1244.28 1559.75 1242.7 1558.44 1238.09C1557.29 1237.34 1552.33 1234.03 1552.05 1233.25C1547.89 1221.95 1545.1 1206.29 1545.85 1194.95Z"/><path fill="#EC0303" d="M1093.84 1807.7C1094.69 1812.69 1093.99 1830.67 1092.28 1835.06C1087.15 1840.37 1084.58 1835.06 1080.04 1845.14C1075.89 1854.36 1066.03 1877.16 1054.29 1877.71C1063.31 1859.14 1083.15 1826.58 1093.84 1807.7Z"/><path fill="#F60403" d="M322.622 443.214C325.733 436.831 341.194 420.603 346.727 414.404C500.66 241.967 720.276 132.172 950.859 114.09C971.18 112.496 1008.78 107.929 1027.91 113.256C1003.89 155.128 980.696 198.591 957.056 240.846L749.54 611.327C744.667 619.941 715.601 675.527 711.683 679.064C652.911 795.337 603.61 844.537 581.273 979.66C579.508 983.103 579.837 983.97 577.05 985.496C574.045 984.143 573.512 983.269 571.299 980.901C568.068 976.724 550.235 935.899 546.561 927.965C532.166 897.324 518.033 866.561 504.164 835.679C498.61 823.424 491.786 810.202 486.871 797.97L322.622 443.214Z"/><path fill="#C90A07" d="M486.871 797.97C495.29 801.633 541.097 907.718 549.218 922.092C552.361 927.654 551.509 932.645 558.404 933.379C562.953 938.745 568.035 965.421 573.72 974.952L574.987 975.121C580.146 966.162 574.827 956.784 577.001 949.976L578.137 952.965C578.674 951.73 579.855 948.226 580.242 947.53C583.508 941.655 581.572 932.411 583.101 926.427C585.5 917.587 589.411 909.172 591.423 900.22C592.567 895.135 589.569 886.091 593.397 882.298C594.35 882.663 595.936 883.364 596.905 883.039C600.598 881.801 602.383 867.047 604.143 863.396C609.086 853.138 614.989 846.263 619.258 835.501C621.536 829.757 620.979 821.94 624.211 818.316L626.78 818.338C632.387 813.556 636.553 795.472 639.335 793.188C651.185 783.458 651.105 775.103 655.772 760.961C657.928 755.911 659.027 761.823 661.282 757.67C669.274 742.955 676.704 728.087 683.722 712.902C686.456 706.984 694.424 701.533 698.413 695.81C702.8 689.515 704.695 682.287 711.683 679.064C652.911 795.337 603.61 844.537 581.273 979.66C579.508 983.103 579.837 983.97 577.05 985.496C574.045 984.143 573.512 983.269 571.299 980.901C568.068 976.724 550.235 935.899 546.561 927.965C532.166 897.324 518.033 866.561 504.164 835.679C498.61 823.424 491.786 810.202 486.871 797.97Z"/><path fill="#F60403" d="M1213.96 542.149C1341.81 495.827 1468.69 444.839 1596.32 397.739C1617.94 389.757 1640.43 381.867 1661.62 372.936C1668.91 378.941 1689.92 400.87 1697.05 408.762C1708.93 418.971 1730.17 447.298 1740.86 460.94C1849.23 599.141 1915.43 769.662 1931.52 944.384C1932.56 955.683 1933.91 983.137 1931.13 992.962C1915.79 983.992 1894.31 973.801 1878.15 965.517L1779.11 914.76L1481.23 763.106L1298.69 669.955C1271.63 656.276 1234.02 635.433 1206.2 625.192C1194.31 617.951 1156.95 607.105 1143.11 602.436C1135.26 596.256 1107.05 594.379 1101.36 588.688C1103.28 586.363 1105.15 584.785 1107.37 582.775C1135.06 570.235 1167.89 560.699 1196.28 548.77C1200.23 548.01 1209.61 543.833 1213.96 542.149Z"/><path fill="#EC0303" d="M1213.96 542.149C1341.81 495.827 1468.69 444.839 1596.32 397.739C1617.94 389.757 1640.43 381.867 1661.62 372.936C1668.91 378.941 1689.92 400.87 1697.05 408.762C1677.9 404.474 1674.38 387.839 1657.9 380.832C1646.68 381.724 1631.92 391.42 1622.11 396.043C1614.95 399.418 1614.3 402.031 1608.19 402.098C1591.72 402.277 1577.88 412.01 1562.73 417.596C1554.46 420.645 1548.19 427.086 1538.27 426.851C1536.99 426.876 1535.69 429.676 1535.22 430.773C1522.52 433.517 1506.03 437.901 1493.66 442.132C1491.9 442.733 1481.3 450.03 1477.14 452.085L1475.31 450.482C1467.52 458.184 1469.95 457.615 1458.46 457.883L1460.46 461.01C1459.88 462.587 1459.7 463.652 1457.63 464.154C1445.5 467.09 1430.18 468.009 1418.49 472.222C1400.67 478.641 1381.51 485.5 1363.94 492.412L1364.07 493.441C1366.91 493.717 1368.17 493.73 1370.96 494.442C1354.1 501.641 1332.94 497.391 1318.17 511.573C1315.38 514.246 1303.95 510.903 1300.9 519.857C1293.15 523.465 1283.54 520.082 1279.5 525.384L1280.53 527.602C1276.02 529.675 1256.08 531.648 1249.96 532.558C1236.97 534.487 1227.12 543.63 1213.96 542.149Z"/><path fill="#010301" d="M1014.26 66.4986C1019.35 63.5666 1025.4 65.1234 1031.07 64.7231C1035.44 64.4142 1047.62 59.7843 1050.99 59.833C1075.91 60.1935 1107.64 66.813 1131.59 71.5067C1153.11 71.1765 1178.37 78.2122 1199.95 81.0537C1243.58 86.7959 1286.95 100.445 1328.45 114.693C1334.8 116.87 1348.95 119.328 1353.68 121.405C1363.33 125.64 1373.5 130.518 1383.53 134.782C1456.05 165.003 1525.05 203.071 1589.3 248.306C1598.5 254.758 1608.06 267.254 1616.03 272.402C1642.82 289.73 1663.67 308.029 1685.15 331.6C1695.36 342.808 1709.75 352.253 1719.31 364.441C1852.35 504.315 1935.4 670.921 1968.31 863.287C2006.75 1087.93 1962.05 1340.56 1834.65 1533.32C1823.68 1550.11 1815.32 1566.67 1807.89 1585.29C1803.47 1587.01 1796.96 1589.71 1792.28 1589.86C1796.85 1583.82 1798.42 1581.49 1801.95 1574.83C1795.26 1558.23 1787.32 1545.57 1780.02 1529.55C1791.55 1518.12 1807.77 1486.55 1816.23 1471.75C1877.03 1365.28 1916.17 1245.63 1928.84 1123.63C1930.89 1103.95 1934.46 1076.64 1933.1 1057.18C1946.8 1063.81 1960.43 1070.6 1973.98 1077.55L1976.16 1076.33C1976.71 1067.49 1978.84 1023.34 1977.11 1016.63C1962.61 1008.5 1946.07 1000.52 1931.13 992.962C1933.91 983.137 1932.56 955.683 1931.52 944.384C1915.43 769.662 1849.23 599.141 1740.86 460.94C1730.17 447.298 1708.93 418.971 1697.05 408.762C1689.92 400.87 1668.91 378.941 1661.62 372.936C1673.33 369.548 1692.5 361.276 1705.04 356.689C1703.46 351.936 1665.18 315.43 1659.5 312.655C1645.71 318.062 1625.42 326.613 1611.77 330.702C1608.49 318.993 1548.05 277.799 1535.02 268.793C1400.52 175.815 1255.31 129.599 1093.33 113.323C1097.07 104.944 1103.32 95.6874 1107.63 86.8429C1108.84 85.6417 1113.49 76.0489 1114.61 73.8641C1110.11 72.1043 1056.43 68.8512 1051.36 69.9037C1043.74 84.4615 1035.92 98.9136 1027.91 113.256C1008.78 107.929 971.18 112.496 950.859 114.09C720.276 132.172 500.66 241.967 346.727 414.404C341.194 420.603 325.733 436.831 322.622 443.214C316.977 429.768 308.88 411.718 302.478 398.857C296.246 405.67 264.744 443.268 263.757 449.471C269.887 464.412 277.283 478.583 283.431 493.46C273.745 502.545 245.194 550.827 237.824 563.769C160.29 697.489 117.63 848.559 113.769 1003.08C113.231 1020.37 115.086 1105.56 120.141 1118.96L119.679 1119.6C105.807 1114.87 87.8056 1109 74.9048 1102.38C71.7395 1105.93 78.1408 1160.83 81.9432 1165.37C90.3471 1169.08 125.201 1181.67 129.803 1184.67C126.429 1200.68 148.406 1276.1 154.244 1292.24C163.692 1325.75 175.577 1354.19 188.979 1385.59C228.017 1477.05 284.078 1562.67 350.989 1636.15C363.988 1650.42 399.452 1687.76 415.051 1698.47C399.887 1704.05 384.789 1709.81 369.758 1715.74C371.358 1721.02 412.532 1756.23 418.866 1758.89C423.795 1756.02 428.157 1754.51 433.436 1752.45C443.532 1748.43 456.833 1742.75 466.859 1739.54C475.283 1752.08 506.726 1770.77 519.96 1779.79C622.327 1849.54 741.185 1897.08 862.62 1920.71C885.015 1925.07 934.201 1932.86 956.894 1934.23C950.968 1945.23 941.342 1964.2 934.617 1973.82C944.334 1976.9 982.429 1976.57 995.291 1978.66L997.461 1977.9C1006.87 1977.06 1017.03 1978.5 1026.56 1978.38C1101.12 1977.51 1176.37 1968.43 1248.89 1951.35C1307.96 1937.43 1361.89 1916.82 1417.37 1892.97C1425.4 1889.51 1464.94 1867.86 1468.99 1867.61C1467.16 1874.92 1353.35 1921.99 1338.44 1927.5C1333.59 1929.29 1310.8 1935.86 1303.33 1938.35C1277.38 1947 1249.1 1951.96 1222.85 1960.03C1211.17 1963.28 1193.87 1964 1181.64 1966.18C1012.5 1997.16 838.041 1979.67 678.411 1915.74C660.2 1908.54 643.57 1903.4 625.611 1894.14C603.757 1881.88 577.978 1872.01 556.782 1858.86C537.851 1847.11 515.34 1834.77 496.977 1822.59C352.36 1726.16 235.811 1593.21 159.148 1437.21C138.986 1395.2 122.217 1349.78 108.022 1305.54C105.188 1296.71 104.901 1286.52 102.428 1279.44C91.3532 1247.73 83.9899 1216.82 80.151 1183.43C78.9063 1172.76 75.3327 1161.55 74.2461 1150.92C69.8107 1107.54 67.8286 1064.41 67.4204 1020.82C67.4548 960.127 73.1629 899.573 84.4701 839.945C86.6641 827.798 88.4508 815.512 90.866 803.435C92.5894 795.522 96.5656 787.836 98.4851 780.044C106.688 746.745 115.333 713.29 129.548 681.984C138.077 663.199 144.898 637.697 154.459 619.898C173.045 585.301 190.048 549.435 211.263 516.463C216.714 507.952 222.998 499.926 228.041 491.592C242.547 467.621 259.9 446.573 277.292 424.761C285.321 415.747 292.781 403.262 301.249 394.838C318.45 377.724 334.263 360.212 350.337 342.131C358.634 332.798 374.174 321.137 383.874 312.375C555.981 154.66 780.818 66.9641 1014.26 66.4986Z"/><path fill="#010301" d="M1705.04 356.689C1711.45 358.221 1726.15 378.138 1731.66 383.953C1770.94 425.422 1806.29 473.274 1836.21 521.957C1912.71 646.384 1959.64 786.708 1973.38 932.125C1975.09 949.422 1979.05 1000.55 1977.11 1016.63C1962.61 1008.5 1946.07 1000.52 1931.13 992.962C1933.91 983.137 1932.56 955.683 1931.52 944.384C1915.43 769.662 1849.23 599.141 1740.86 460.94C1730.17 447.298 1708.93 418.971 1697.05 408.762C1689.92 400.87 1668.91 378.941 1661.62 372.936C1673.33 369.548 1692.5 361.276 1705.04 356.689Z"/><path fill="#010301" d="M74.9048 1102.38C71.9265 1098.35 72.0508 1076.54 71.7533 1070.21C68.6179 1003.48 72.5469 937.936 82.6012 871.937C103.02 739.374 151.901 612.805 225.885 500.93C234.003 488.581 253.648 456.903 263.757 449.471C269.887 464.412 277.283 478.583 283.431 493.46C273.745 502.545 245.194 550.827 237.824 563.769C160.29 697.489 117.63 848.559 113.769 1003.08C113.231 1020.37 115.086 1105.56 120.141 1118.96L119.679 1119.6C105.807 1114.87 87.8056 1109 74.9048 1102.38Z"/><path fill="#010301" d="M81.9432 1165.37C90.3471 1169.08 125.201 1181.67 129.803 1184.67C126.429 1200.68 148.406 1276.1 154.244 1292.24C163.692 1325.75 175.577 1354.19 188.979 1385.59C228.017 1477.05 284.078 1562.67 350.989 1636.15C363.988 1650.42 399.452 1687.76 415.051 1698.47C399.887 1704.05 384.789 1709.81 369.758 1715.74C361.19 1710.48 349.628 1696.62 341.972 1688.97C277.026 1623.66 222.139 1549.07 179.104 1467.63C134.737 1383.35 103.379 1292.83 86.0955 1199.16C85.1707 1193.88 80.6506 1169.54 81.9432 1165.37Z"/><path fill="#010301" d="M1114.61 73.8641C1246.34 85.0397 1374.08 124.663 1489.01 190C1530.71 212.768 1570.28 239.223 1607.27 269.049C1620.18 279.635 1650.45 300.775 1659.5 312.655C1645.71 318.062 1625.42 326.613 1611.77 330.702C1608.49 318.993 1548.05 277.799 1535.02 268.793C1400.52 175.815 1255.31 129.599 1093.33 113.323C1097.07 104.944 1103.32 95.6874 1107.63 86.8429C1108.84 85.6417 1113.49 76.0489 1114.61 73.8641Z"/><path fill="#010301" d="M466.859 1739.54C475.283 1752.08 506.726 1770.77 519.96 1779.79C622.327 1849.54 741.185 1897.08 862.62 1920.71C885.015 1925.07 934.201 1932.86 956.894 1934.23C950.968 1945.23 941.342 1964.2 934.617 1973.82C928.081 1971.24 913.544 1971.59 905.718 1970.6C746.28 1950.51 591.431 1888.84 462.24 1793.26C452.091 1785.75 424.823 1767.2 418.866 1758.89C423.795 1756.02 428.157 1754.51 433.436 1752.45C443.532 1748.43 456.833 1742.75 466.859 1739.54Z"/><path fill="#010301" d="M1933.1 1057.18C1946.8 1063.81 1960.43 1070.6 1973.98 1077.55C1980.29 1087.67 1965.54 1182.46 1961.8 1202.02C1939.12 1320.55 1893.91 1438.26 1826.66 1538.77C1820.87 1547.43 1808.18 1568.88 1801.95 1574.83C1795.26 1558.23 1787.32 1545.57 1780.02 1529.55C1791.55 1518.12 1807.77 1486.55 1816.23 1471.75C1877.03 1365.28 1916.17 1245.63 1928.84 1123.63C1930.89 1103.95 1934.46 1076.64 1933.1 1057.18Z"/><path fill="#C90A07" d="M1014.26 66.4986C1019.35 63.5666 1025.4 65.1234 1031.07 64.7231C1035.44 64.4142 1047.62 59.7843 1050.99 59.833C1075.91 60.1935 1107.64 66.813 1131.59 71.5067C1153.11 71.1765 1178.37 78.2122 1199.95 81.0537C1243.58 86.7959 1286.95 100.445 1328.45 114.693C1334.8 116.87 1348.95 119.328 1353.68 121.405C1363.33 125.64 1373.5 130.518 1383.53 134.782C1456.05 165.003 1525.05 203.071 1589.3 248.306C1598.5 254.758 1608.06 267.254 1616.03 272.402C1642.82 289.73 1663.67 308.029 1685.15 331.6C1695.36 342.808 1709.75 352.253 1719.31 364.441C1852.35 504.315 1935.4 670.921 1968.31 863.287C2006.75 1087.93 1962.05 1340.56 1834.65 1533.32C1823.68 1550.11 1815.32 1566.67 1807.89 1585.29C1803.47 1587.01 1796.96 1589.71 1792.28 1589.86C1796.85 1583.82 1798.42 1581.49 1801.95 1574.83C1808.18 1568.88 1820.87 1547.43 1826.66 1538.77C1893.91 1438.26 1939.12 1320.55 1961.8 1202.02C1965.54 1182.46 1980.29 1087.67 1973.98 1077.55L1976.16 1076.33C1976.71 1067.49 1978.84 1023.34 1977.11 1016.63C1979.05 1000.55 1975.09 949.422 1973.38 932.125C1959.64 786.708 1912.71 646.384 1836.21 521.957C1806.29 473.274 1770.94 425.422 1731.66 383.953C1726.15 378.138 1711.45 358.221 1705.04 356.689C1703.46 351.936 1665.18 315.43 1659.5 312.655C1650.45 300.775 1620.18 279.635 1607.27 269.049C1570.28 239.223 1530.71 212.768 1489.01 190C1374.08 124.663 1246.34 85.0397 1114.61 73.8641C1110.11 72.1043 1056.43 68.8512 1051.36 69.9037C1043.66 67.9443 1021.24 70.8012 1011.46 70.4634C981.178 69.4175 951.672 72.6597 921.579 75.4502C786.195 88.5492 655.413 131.569 538.691 201.399C460.628 247.843 389.65 305.272 327.937 371.922C322.065 378.218 306.987 392.742 302.478 398.857C296.246 405.67 264.744 443.268 263.757 449.471C253.648 456.903 234.003 488.581 225.885 500.93C151.901 612.805 103.02 739.374 82.6012 871.937C72.5469 937.936 68.6179 1003.48 71.7533 1070.21C72.0508 1076.54 71.9265 1098.35 74.9048 1102.38C71.7395 1105.93 78.1408 1160.83 81.9432 1165.37C80.6506 1169.54 85.1707 1193.88 86.0955 1199.16C103.379 1292.83 134.737 1383.35 179.104 1467.63C222.139 1549.07 277.026 1623.66 341.972 1688.97C349.628 1696.62 361.19 1710.48 369.758 1715.74C371.358 1721.02 412.532 1756.23 418.866 1758.89C424.823 1767.2 452.091 1785.75 462.24 1793.26C591.431 1888.84 746.28 1950.51 905.718 1970.6C913.544 1971.59 928.081 1971.24 934.617 1973.82C944.334 1976.9 982.429 1976.57 995.291 1978.66L997.461 1977.9C1006.87 1977.06 1017.03 1978.5 1026.56 1978.38C1101.12 1977.51 1176.37 1968.43 1248.89 1951.35C1307.96 1937.43 1361.89 1916.82 1417.37 1892.97C1425.4 1889.51 1464.94 1867.86 1468.99 1867.61C1467.16 1874.92 1353.35 1921.99 1338.44 1927.5C1333.59 1929.29 1310.8 1935.86 1303.33 1938.35C1277.38 1947 1249.1 1951.96 1222.85 1960.03C1211.17 1963.28 1193.87 1964 1181.64 1966.18C1012.5 1997.16 838.041 1979.67 678.411 1915.74C660.2 1908.54 643.57 1903.4 625.611 1894.14C603.757 1881.88 577.978 1872.01 556.782 1858.86C537.851 1847.11 515.34 1834.77 496.977 1822.59C352.36 1726.16 235.811 1593.21 159.148 1437.21C138.986 1395.2 122.217 1349.78 108.022 1305.54C105.188 1296.71 104.901 1286.52 102.428 1279.44C91.3532 1247.73 83.9899 1216.82 80.151 1183.43C78.9063 1172.76 75.3327 1161.55 74.2461 1150.92C69.8107 1107.54 67.8286 1064.41 67.4204 1020.82C67.4548 960.127 73.1629 899.573 84.4701 839.945C86.6641 827.798 88.4508 815.512 90.866 803.435C92.5894 795.522 96.5656 787.836 98.4851 780.044C106.688 746.745 115.333 713.29 129.548 681.984C138.077 663.199 144.898 637.697 154.459 619.898C173.045 585.301 190.048 549.435 211.263 516.463C216.714 507.952 222.998 499.926 228.041 491.592C242.547 467.621 259.9 446.573 277.292 424.761C285.321 415.747 292.781 403.262 301.249 394.838C318.45 377.724 334.263 360.212 350.337 342.131C358.634 332.798 374.174 321.137 383.874 312.375C555.981 154.66 780.818 66.9641 1014.26 66.4986Z"/><path fill="#EC0303" d="M1014.26 66.4986C1019.35 63.5666 1025.4 65.1234 1031.07 64.7231C1035.44 64.4142 1047.62 59.7843 1050.99 59.833C1075.91 60.1935 1107.64 66.813 1131.59 71.5067C1111.35 71.9596 1077.83 65.0551 1056.79 64.9811C1042.87 64.9322 1030.13 66.763 1014.26 66.4986Z"/><path fill="#F60403" d="M283.431 493.46C312.941 561.969 347.595 633.039 379.107 700.981L531.803 1031.07C554.743 1080.19 577.436 1129.43 599.881 1178.78C603.31 1186.26 620.733 1220.74 621.701 1224.05C620.633 1236.65 652.327 1274.46 653.975 1290.08C654.399 1294.1 673.464 1312.02 668.453 1318.47C648.343 1316.5 625.006 1301.93 607.594 1303.92C604.351 1303.52 586.513 1296.51 582.09 1294.84L523.906 1272.81L282.311 1181.28L155.84 1133.64C149.481 1131.19 124.08 1122.35 119.679 1119.6L120.141 1118.96C115.086 1105.56 113.231 1020.37 113.769 1003.08C117.63 848.559 160.29 697.489 237.824 563.769C245.194 550.827 273.745 502.545 283.431 493.46Z"/><path fill="#F60403" d="M129.803 1184.67C143.646 1188.48 163.881 1196.48 177.742 1201.78L185.486 1205.24C206.86 1211.18 235.791 1224.7 258.29 1232.27C376.797 1278.95 500.156 1323.81 619.628 1368.53L760.954 1421.81C795.366 1434.69 827.252 1446.92 862.372 1458C876.163 1462.27 890.097 1466.06 904.149 1469.37C914.09 1471.61 927.163 1473.9 936.646 1476.71C943.022 1481.51 948.601 1478.2 954.327 1483.16L954.412 1484.64C952.401 1486.82 951.752 1487.57 949.391 1489.47L949.258 1490.55C938.57 1496.33 897.811 1511.74 885.224 1515.82C831.569 1539.15 773.987 1557.78 719.819 1580.31C714.482 1582.53 708.287 1584.76 702.789 1586.51C677.709 1597.93 645.192 1608.34 619.129 1618.91C551.608 1646.29 482.44 1670.93 415.051 1698.47C399.452 1687.76 363.988 1650.42 350.989 1636.15C284.078 1562.67 228.017 1477.05 188.979 1385.59C175.577 1354.19 163.692 1325.75 154.244 1292.24C148.406 1276.1 126.429 1200.68 129.803 1184.67Z"/><path fill="#EC0303" d="M702.789 1586.51C708.452 1576.49 728.869 1569.09 738.935 1564.75L739.326 1562.35C745.7 1558.85 740.104 1563.52 746.933 1562.1C748.403 1559.02 748.796 1558.32 750.718 1555.51C753.534 1553.63 756.695 1554.2 759.926 1554.44C771.88 1555.32 803.344 1538.91 816.374 1534.75C821.876 1532.99 827.847 1532.08 833.549 1531.2C837.696 1526.8 839.426 1526.28 844.894 1524.18L846.547 1523.55C843.585 1522.07 844.026 1523.05 843.318 1520.97C865.1 1508.42 859.76 1515.61 885.224 1515.82C831.569 1539.15 773.987 1557.78 719.819 1580.31C714.482 1582.53 708.287 1584.76 702.789 1586.51Z"/><path fill="#C90A07" d="M129.803 1184.67C143.646 1188.48 163.881 1196.48 177.742 1201.78L185.486 1205.24C173.582 1206.15 150.453 1196.46 140.819 1202.06C131.035 1217.94 155.727 1274.73 154.244 1292.24C148.406 1276.1 126.429 1200.68 129.803 1184.67Z"/><path fill="#F60403" d="M1093.33 113.323C1255.31 129.599 1400.52 175.815 1535.02 268.793C1548.05 277.799 1608.49 318.993 1611.77 330.702C1584.06 341.811 1556.18 352.519 1528.15 362.824L1406.78 408.677C1395.25 413.108 1350.89 431.644 1342.24 432.61C1310.15 446.898 1262.75 463.053 1229.18 475.608L1004.5 560.485C944.826 583.3 883.286 603.897 826.313 632.971C816.005 638.231 806.103 644.17 795.857 649.59C800.533 636.596 821.097 602.241 828.469 589.001L893.099 472.499L1089.65 120.085L1093.33 113.323Z"/><path fill="#EC0303" d="M1342.24 432.61L1342.61 430.706C1349.92 427.518 1364.42 416.648 1372.97 412.107C1384.58 405.941 1387.62 408.635 1397.14 404.53L1397.41 403.345C1395.88 402.83 1394.5 402.406 1392.95 401.943C1397.01 399.675 1404.44 402.166 1406.96 400.998C1420.07 394.922 1449.38 388.713 1460.3 381.022C1458.28 380.758 1456.54 380.443 1454.53 380.068L1454.62 378.945C1468.33 374.089 1480.82 380.088 1493.96 364.922C1497.01 361.404 1521.71 362.581 1528.15 362.824L1406.78 408.677C1395.25 413.108 1350.89 431.644 1342.24 432.61Z"/><path fill="#F60403" d="M1193.08 1451.61C1204.37 1450.82 1227.31 1431.48 1235.26 1432.94C1236.07 1439.22 1225.02 1449.78 1224.63 1460.12C1222.17 1467.01 1216.03 1475.18 1212.45 1481.88C1193.66 1517.08 1172.71 1551.45 1153.62 1586.49C1150.71 1591.84 1138.66 1611.84 1137.07 1616.02C1130.04 1628.16 1120.49 1643.71 1114.31 1655.98C1064.52 1740.38 1018.32 1827.74 969.291 1912.64C965.166 1919.78 960.846 1927.01 956.894 1934.23C934.201 1932.86 885.015 1925.07 862.62 1920.71C741.185 1897.08 622.327 1849.54 519.96 1779.79C506.726 1770.77 475.283 1752.08 466.859 1739.54L476.2 1735.74C492.045 1731.06 520.679 1718.07 537.761 1711.64L714.59 1643.15L964.385 1546.35C1032.82 1519.97 1101.35 1494.53 1168.27 1464.49C1176.25 1460.91 1183.82 1455.67 1191.45 1452.32L1193.08 1451.61Z"/><path fill="#EC0303" d="M1114.31 1655.98C1112.13 1646.82 1119.5 1617.84 1127.5 1614.42C1131.33 1615.59 1133.03 1615.63 1137.07 1616.02C1130.04 1628.16 1120.49 1643.71 1114.31 1655.98Z"/><path fill="#F60403" d="M1430.17 841.149C1431.3 832.689 1423.35 817.311 1426.55 811.283C1437.63 806.835 1447.49 818.769 1460.31 816.978L1461.35 816.824C1474.61 824.205 1489 830.827 1502.6 837.746C1529.66 851.834 1556.83 865.694 1584.12 879.325L1815.62 997.405C1842.59 1011.27 1869.64 1024.96 1896.77 1038.5C1901.43 1040.85 1929.77 1054.8 1933.1 1057.18C1934.46 1076.64 1930.89 1103.95 1928.84 1123.63C1916.17 1245.63 1877.03 1365.28 1816.23 1471.75C1807.77 1486.55 1791.55 1518.12 1780.02 1529.55C1774.22 1517.82 1766.52 1504.72 1760.27 1492.49L1703.67 1380.48L1430.17 841.149Z"/><path fill="#F8F7EF" d="M1206.2 625.192C1199.84 625.898 1166.97 619.367 1163.87 616.036C1153.83 605.26 1086.48 600.508 1085.03 589.043C1092.07 581.761 1125.6 570.162 1135.38 562.363C1136.36 561.578 1149.17 561.506 1152.3 560.497C1167.14 555.718 1180.3 547.683 1196.28 548.77C1167.89 560.699 1135.06 570.235 1107.37 582.775C1105.15 584.785 1103.28 586.363 1101.36 588.688C1107.05 594.379 1135.26 596.256 1143.11 602.436C1156.95 607.105 1194.31 617.951 1206.2 625.192Z"/><path fill="#76352A" d="M1107.37 582.775C1105.15 584.785 1103.28 586.363 1101.36 588.688C1107.05 594.379 1135.26 596.256 1143.11 602.436C1125.15 598.712 1105.25 594.033 1087.21 590.02C1094.13 587.356 1100.32 585.045 1107.37 582.775Z"/><path fill="#C90A07" d="M621.701 1224.05C637.022 1246.87 647.722 1274.19 665.573 1296.02C669.822 1301.22 676.125 1310.09 679.412 1315.89C677.282 1325.61 685.968 1321.27 675.459 1330.08C653.174 1321.01 630.149 1313 607.594 1303.92C625.006 1301.93 648.343 1316.5 668.453 1318.47C673.464 1312.02 654.399 1294.1 653.975 1290.08C652.327 1274.46 620.633 1236.65 621.701 1224.05Z"/><path fill="#C90A07" d="M1430.17 841.149C1427.02 838.968 1401.94 791.331 1398.43 784.699C1417.05 795.153 1442 806.959 1461.35 816.824L1460.31 816.978C1447.49 818.769 1437.63 806.835 1426.55 811.283C1423.35 817.311 1431.3 832.689 1430.17 841.149Z"/><path fill="#F8F7EF" d="M177.742 1201.78C181.911 1201.43 208.921 1204.12 210.969 1205.37C219.264 1210.43 254.382 1226.15 258.29 1232.27C235.791 1224.7 206.86 1211.18 185.486 1205.24L177.742 1201.78Z"/><path fill="#76352A" d="M1193.08 1451.61C1197.88 1448.01 1210.04 1441.99 1216.33 1438.28C1227.12 1431.91 1236.88 1425.22 1247.42 1418.75C1241.45 1430.25 1231.93 1449.57 1224.63 1460.12C1225.02 1449.78 1236.07 1439.22 1235.26 1432.94C1227.31 1431.48 1204.37 1450.82 1193.08 1451.61Z"/><path fill="#F8F7EF" d="M433.436 1752.45C436.133 1737.24 463.623 1735.18 476.2 1735.74L466.859 1739.54C456.833 1742.75 443.532 1748.43 433.436 1752.45Z"/><path fill="#F8F7EF" d="M1089.65 120.085C1089.25 113.603 1090.17 108.585 1092.21 102.454C1095.44 92.7696 1100.34 91.629 1107.63 86.8429C1103.32 95.6874 1097.07 104.944 1093.33 113.323L1089.65 120.085Z"/><path fill="#76352A" d="M936.646 1476.71C948.811 1478.08 960.681 1480.19 972.713 1481.65C968.674 1483.44 953.121 1490.4 949.258 1490.55L949.391 1489.47C951.752 1487.57 952.401 1486.82 954.412 1484.64L954.327 1483.16C948.601 1478.2 943.022 1481.51 936.646 1476.71Z"/><path fill="#76352A" d="M679.412 1315.89C684.899 1322.99 690.858 1331.05 696.754 1337.69L675.459 1330.08C685.968 1321.27 677.282 1325.61 679.412 1315.89Z"/><path fill="#F8F7EF" d="M995.291 1978.66C995.249 1976.62 999.569 1962.8 1001.03 1961.65L1003.39 1962.68C1002.52 1957.42 1001.11 1957.46 1003.02 1954.09C1006.22 1952.71 1007.29 1953.23 1010.72 1953.87C1006.43 1961.49 1001.28 1970.15 997.461 1977.9L995.291 1978.66Z"/><path fill="#76352A" d="M1470.17 1073.43C1471.06 1064.62 1471.82 1055.8 1472.45 1046.96C1475.11 1054.2 1476.6 1057.82 1480.14 1064.65C1475.73 1064.38 1476.87 1063.79 1473.81 1065.8L1473.5 1066.7C1472.28 1070.11 1472.16 1070.51 1470.17 1073.43Z"/><path fill="#76352A" d="M571.299 980.901C573.512 983.269 574.045 984.143 577.05 985.496C579.837 983.97 579.508 983.103 581.273 979.66L579.333 999.499C576.86 993.894 573.349 986.493 571.299 980.901Z"/><path fill="#EC0303" d="M941.108 1015.51C878.374 976.306 849.054 910.429 865.584 838C876.71 789.251 912.982 748.731 958.003 728.303C997.004 710.78 1041.36 709.451 1081.35 724.607C1122.67 739.891 1156.12 771.15 1174.16 811.352C1191.01 849.103 1191.91 897.385 1176.48 935.649C1162.18 971.097 1139.7 995.025 1107.94 1015.13C1116.8 1069.11 1129.65 1127.94 1140.17 1181.9C1146.15 1213.29 1152.32 1244.64 1158.68 1275.96C1162.35 1294.77 1165.71 1314.78 1170.04 1333.34L980.705 1333.42C949.646 1333.42 907.963 1334.77 878.159 1332.99L890.822 1269.85C892.218 1262.88 895.376 1244.67 897.488 1238.72C897.525 1236.22 900.501 1221.27 901.077 1218.21C904.95 1197.69 909.032 1177.21 913.323 1156.78L941.108 1015.51Z"/><path fill="#C90A07" d="M941.108 1015.51C878.374 976.306 849.054 910.429 865.584 838C876.71 789.251 912.982 748.731 958.003 728.303C997.004 710.78 1041.36 709.451 1081.35 724.607C1073.24 726.756 1060.45 720.669 1051.45 719.869C1009.41 716.279 976.229 718.536 939.961 742.217C919.095 755.842 911.829 761.631 896.716 780.956C851.855 838.32 853.755 924.606 902.706 978.846C907.474 984.129 911.775 990.642 917.648 994.847C922.606 998.781 943.444 1010.95 943.206 1016.66C942.359 1036.9 933.817 1065.04 929.769 1085.5C928.021 1094.35 927.586 1099.93 926.235 1106.91C922.484 1125.56 918.597 1144.19 914.576 1162.78C912.741 1171.63 901.338 1235.78 898.656 1238.6L897.488 1238.72C897.525 1236.22 900.501 1221.27 901.077 1218.21C904.95 1197.69 909.032 1177.21 913.323 1156.78L941.108 1015.51Z"/></svg>